<svg width="600" height="600" xmlns="http://www.w3.org/2000/svg" version="1.1">

 <metadata id="metadata4723">image/svg+xml</metadata>
 <g>
  <title>Layer 1</title>
  <g id="layer1"/>

   <path fill="#e49977" d="m599.80743,301.73312a299.37943,299.76654 0 0 1 -149.68966,259.60541a299.37943,299.76654 0 0 1 -299.37937,0.00009l149.68961,-259.6055l299.37942,0z"  id="path2219"       />
   <path fill="#f8f6d8" d="m150.7384,561.33862a299.37943,299.76654 0 0 1 -149.68982,-259.6055a299.37943,299.76654 0 0 1 149.68948,-259.6053l149.68995,259.6053l-149.68961,259.6055z"  id="path2225"       />
   <path fill="#bab1ab" d="m150.73806,42.12782a299.37943,299.76654 0 0 1 299.37937,-0.0003a299.37943,299.76654 0 0 1 149.69,259.60521l-299.37942,0.00039l-149.68995,-259.6053z"  id="path2231"       />

   <path fill="#0d0f0f" id="svg_3"  d="m263.00245,347.58028c-14.61637,-13.58412 -24.32461,-20.95219 -29.08848,-22.09221c-3.46186,-0.83402 -6.80999,1.18202 -10.03164,6.03008c-3.22199,4.84803 -7.75237,6.57005 -13.60824,5.14805c-2.38194,-0.56402 -7.0502,-2.59204 -13.99807,-6.09607c-5.62774,5.31003 -8.64609,8.8261 -9.06612,10.54809c-0.56965,2.38203 0.53409,5.62807 3.29982,9.73809c2.76036,4.09805 5.36439,6.42009 7.80604,7.0081c1.54256,0.37799 3.7326,0.55201 6.5406,0.54c2.808,0 4.66155,0.0903 5.55561,0.3063c2.66442,0.62998 2.81404,5.82604 0.47438,15.58215c-2.22023,9.31209 -7.81242,23.11823 -16.76447,41.3524c-0.34824,-23.44821 -3.65376,-35.92834 -9.92966,-37.42834c-0.87024,-0.21035 -2.81404,0.0168 -5.83239,0.66597c-3.03009,0.63602 -5.1839,0.82805 -6.47987,0.51602c-6.28764,-1.50003 -10.54762,-8.60408 -12.78597,-21.28221c-10.3319,-0.86999 -16.54204,3.03602 -18.61802,11.69411c-1.03799,4.35007 0.14426,8.29808 3.53399,11.85012c3.38403,3.56405 4.94403,5.88606 4.69778,6.96006c-1.39159,5.86807 -12.1254,12.79813 -32.12964,20.84423c-10.66201,4.33805 -18.04199,7.37408 -22.12819,9.14408c3.95402,-3.17402 8.21433,-7.54807 12.75611,-13.11011c5.17216,-6.32407 8.23211,-11.43012 9.16811,-15.34818c0.51631,-2.14202 -1.24834,-5.79004 -5.2983,-10.87808c-4.056,-5.10605 -5.55595,-9.80411 -4.51796,-14.12415c0.87628,-3.69603 3.25822,-7.92609 7.15822,-12.73815c-2.04008,-3.91803 -5.00408,-6.35403 -8.90442,-7.27807c-8.66354,-2.08804 -13.67365,-0.3063 -15.02364,5.34006c0.936,-3.89404 0.23484,-0.97201 -2.09409,8.7841c-1.49962,7.18805 -7.77585,9.46809 -18.8277,6.83407c-8.45386,-2.01604 -22.17583,-7.36807 -41.18402,-16.0322c23.89217,-0.24625 36.71369,-4.05 38.47197,-11.42408c-0.19458,0.87599 0,-1.84203 0.57569,-8.11809c0.73806,-6.90608 6.96028,-11.85609 18.64787,-14.78416c0.43848,-10.41611 -3.5578,-16.65014 -12.0177,-18.66618c-1.29598,-0.32978 -4.23582,1.37402 -8.77828,5.10005c-4.55956,3.72605 -8.35758,5.22605 -11.38767,4.50002c-5.20201,-1.24197 -10.5721,-8.48404 -16.1039,-21.72619c-2.55639,-6.57606 -6.52248,-16.33817 -11.8919,-29.31029c4.36196,3.78604 8.71755,7.5961 13.08589,11.37614c5.7777,4.59604 10.61974,7.35006 14.51404,8.29207c3.0358,0.71999 6.64795,-1.21205 10.84754,-5.83808c4.18818,-4.60205 8.67629,-6.33605 13.44016,-5.19603c0.66627,0.14996 4.68,2.48402 12.07206,7.01403c5.62238,-5.29201 8.79605,-9.46205 9.52808,-12.50411c0.61226,-2.59201 -0.23819,-5.94605 -2.58625,-10.06808c-2.33396,-4.11002 -4.81184,-6.46806 -7.40983,-7.11008c-1.08596,-0.25799 -2.83182,-0.34207 -5.26207,-0.2221c-2.43595,0.10803 -4.19388,0.0359 -5.27414,-0.23383c-3.89967,-0.93001 -4.68571,-6.27009 -2.35141,-16.02019c0.61125,-2.616 6.66573,-16.85419 18.13157,-42.75042c-0.99605,3.18602 -1.03799,9.60608 -0.12413,19.2302c1.08596,11.71814 4.12209,18.1442 9.10806,19.35618c0.86353,0.20398 2.75365,-0.0302 5.66968,-0.71398c2.90998,-0.67202 5.11814,-0.84003 6.63017,-0.46801c4.97992,1.20001 8.424,4.99806 10.3319,11.4061l2.77814,9.9361c4.54212,1.09201 8.72996,0.37799 12.53402,-2.14202c3.81579,-2.52602 6.2759,-6.07209 7.36186,-10.62012c1.13393,-4.75805 0,-8.87408 -3.40785,-12.33611c-3.41992,-3.45005 -4.97388,-5.82607 -4.64981,-7.12807c1.08563,-4.54803 10.07962,-10.5241 26.9699,-17.92217c13.55993,-5.92209 22.254,-9.23412 26.09395,-9.91811c-12.32401,10.35012 -19.19405,18.42017 -20.58597,24.28227c-0.72633,3.036 0.33212,6.73803 3.18609,11.0881c3.56988,5.20206 5.47174,8.75407 5.69954,10.62609c0.97189,5.52004 -0.87562,12.29413 -5.54388,20.33419c4.86586,5.52008 8.81417,8.6341 11.86205,9.37211c6.26415,1.50003 10.19401,-1.00204 11.74797,-7.50009c0.16104,-0.64799 0.37977,-2.77203 0.67198,-6.36004c0.2751,-3.61202 0.5881,-5.59807 0.90614,-5.98808c1.6016,-2.82601 7.92011,-2.90401 18.97196,-0.26973c6.93613,1.66201 20.87381,7.05607 41.83217,16.19414c-5.07621,0.15601 -12.69606,0.39001 -22.85384,0.71999c-9.29392,0.52202 -14.32819,2.41806 -15.11423,5.67008c-0.35192,1.51204 -0.44384,4.24203 -0.23819,8.18411c0.20464,3.936 0.0939,6.78604 -0.31536,8.50806c-0.71995,3.04203 -3.34813,5.37605 -7.86609,7.05607l-12.93559,5.15406c1.47546,5.39403 2.51982,8.6281 3.18575,9.69008c1.55397,3.12607 4.15799,5.13004 7.84194,6.01207c2.60403,0.62401 5.53213,-1.08601 8.79002,-5.12407c3.25185,-4.03202 7.27195,-5.46602 12.03582,-4.33802c5.85051,1.39801 11.16625,8.3941 15.94824,21.00021c2.64596,7.05607 6.83381,17.79015 12.55214,32.2203l-0.00604,-0.0006zm-67.65035,-36.12032c3.3119,-13.86619 1.09837,-27.1263 -6.64795,-39.74441c-7.75203,-12.62416 -18.56435,-20.59822 -32.42386,-23.89828c-14.09436,-3.38399 -27.43823,-1.25398 -40.02593,6.3961c-12.58837,7.62607 -20.68796,18.46818 -24.27025,32.50232c-3.54003,13.81812 -1.26008,27.03029 6.84588,39.62441c8.10026,12.57612 19.07998,20.54421 32.95795,23.86221c14.7301,3.51605 28.18837,1.63802 40.35001,-5.63407c12.15022,-7.29004 19.89017,-18.33616 23.21415,-33.10828zm-4.88398,-1.17004c-3.16227,13.21813 -10.21817,23.11223 -21.17978,29.63427c-10.95623,6.55207 -23.05815,8.23813 -36.26448,5.07609c-12.78596,-3.06005 -22.66194,-10.12813 -29.64001,-21.18623c-6.97806,-11.0581 -8.93394,-22.96823 -5.87399,-35.77235c3.01835,-12.57014 10.18832,-22.24821 21.5525,-29.04629c11.37559,-6.77406 23.33359,-8.65809 35.89746,-5.65806c12.56388,3.00003 22.36806,10.15812 29.3941,21.4622c7.02638,11.31612 9.07216,23.12427 6.1142,35.49037z"/>

  <path fill="#0d0f0f" id="svg_4"  d="m492.71988,151.93796c0,16.20616 -5.89144,27.26426 -17.68202,33.15032c-3.44375,1.72202 -14.24365,4.06805 -32.42353,6.99608c-11.77817,1.98001 -17.67598,6.51604 -17.67598,13.62612l0,29.83828c0,1.25402 0.37574,5.05207 1.10945,11.43012l1.11011,11.79614c0,3.67802 -0.86387,9.7021 -2.58591,18.04818c-4.66188,0.97802 -10.06787,2.08801 -16.20589,3.33002c-1.96795,-7.38005 -2.94622,-12.41411 -2.94622,-15.12015c0,-1.21802 0.30194,-3.07202 0.91822,-5.52605c0.61226,-2.44201 0.92359,-4.29605 0.92359,-5.53205c0,-1.70401 -1.51773,-6.49809 -4.57164,-14.36416l-5.71766,0c-0.75651,1.23003 -1.00242,2.83205 -0.76222,4.78207c0.98431,4.18202 1.34999,7.73406 1.11616,10.68608c-4.18248,2.94605 -9.9424,6.87608 -17.3103,11.79013c-1.73379,-0.49199 -2.33397,-0.738 -1.84819,-0.738l0,-26.15426c-0.48578,-1.21802 -1.70962,-1.71002 -3.68395,-1.47601l-4.42201,0l-4.42168,34.62632c-3.43837,0.24591 -7.60811,0.24591 -12.51624,0c-1.72204,-8.10605 -4.79373,-20.12418 -9.21004,-36.10233l-2.95796,0c-2.69998,8.59807 -4.16973,13.26611 -4.42202,14.00411c0,0.97801 0.312,2.87405 0.9303,5.70607c0.61192,2.83202 0.91789,4.72205 0.91789,5.70607c0,0.732 -0.25162,2.58003 -0.75015,5.52605l-1.10374,8.85009c-0.49853,0.47401 -1.09837,0.71999 -1.8361,0.71999c-7.36824,0 -12.28845,-1.842 -14.7301,-5.51404c-2.47185,-3.69002 -3.45582,-8.85009 -2.95796,-15.48016l2.95796,-44.19043c0,-0.73804 0.23484,-1.72202 0.72599,-2.95205c0.49182,-1.21799 0.73806,-2.08801 0.73806,-2.56802c0,-1.96801 -2.08805,-5.90404 -6.25812,-11.80812c-0.73806,-0.23987 -4.54211,-1.10999 -11.4239,-2.58604c-4.17006,-0.972 -12.39613,-2.69399 -24.67183,-5.14204c-16.94999,-3.18603 -25.42834,-16.81815 -25.42834,-40.88437c0,-35.86837 14.74217,-65.69467 44.20203,-89.52092c1.22418,6.63608 3.32397,15.46815 6.27019,26.52028c2.20782,0.504 7.00223,1.614 14.36409,3.32404c1.48183,0.48599 8.96379,3.19203 22.46971,8.10605c-6.87004,-4.17001 -15.83988,-10.9081 -26.87999,-20.25019c-4.1818,-4.90804 -6.27589,-13.14013 -6.27589,-24.67825c0,-2.71201 4.66792,-5.89206 14.01014,-9.6001c8.34584,-3.432 14.60362,-5.37605 18.7861,-5.87405c13.25363,-1.71602 23.44765,-2.58604 30.57568,-2.58604c30.69041,0 55.50012,7.86611 74.40599,23.59225c-6.13198,7.12806 -16.69771,14.71816 -31.67372,22.83622c5.89211,0.24591 14.48989,-2.082 25.78765,-7.00806c11.29239,-4.89003 16.08009,-7.36808 14.36442,-7.36808c1.96158,0 5.89781,3.93604 11.78958,11.79014c4.40424,5.89206 7.97378,11.1781 10.68013,15.84017c7.86006,13.99811 13.13991,29.11825 15.84592,45.31243c0,5.65206 0.12077,9.70209 0.36803,12.15011l0,2.94004l0,0l-0.01409,0zm-141.09586,6.64805c0,-10.5661 -4.60217,-20.57419 -13.80583,-30.03628c-9.21642,-9.45608 -19.11588,-14.17813 -29.66417,-14.17813c-9.32981,0 -17.54984,3.96002 -24.67787,11.8681c-7.12199,7.91408 -10.68047,16.69217 -10.68047,26.34025c0,8.4001 4.05064,13.85412 12.1566,16.31415c5.15974,1.48802 12.3958,2.35203 21.72561,2.60405l20.26223,0c16.45817,0.21002 24.6839,-4.09204 24.6839,-12.91214zm40.15778,45.67245l0,-11.4061c-1.71567,-3.19803 -3.43771,-6.52808 -5.14801,-9.96012c-1.47545,-4.90204 -4.1818,-11.77812 -8.10596,-20.63418l-4.05567,43.10442c0,3.45602 -0.73202,5.16604 -2.21419,5.16604c-0.97794,0 -1.72204,-0.23988 -2.20749,-0.73801c-1.72237,-26.02825 -2.5745,-37.33236 -2.5745,-33.87634l0,-12.88811c-0.49819,-0.75599 -1.11012,-1.12801 -1.84818,-1.12801c-8.34584,8.62209 -12.51557,22.48822 -12.51557,41.62841c0,10.56611 0.97794,17.07017 2.93985,19.54221c1.97399,-0.49203 4.17006,-1.35601 6.63587,-2.58604c0.97827,-0.498 3.79802,-0.73801 8.46628,-0.73801c4.6498,0 10.31982,1.47001 16.93758,4.41005c2.46614,-0.0168 3.68999,-6.63007 3.68999,-19.89621zm83.25606,-51.33648c0,-9.87611 -3.68395,-18.71419 -11.05185,-26.50826c-7.3679,-7.7821 -15.84022,-11.67013 -25.40419,-11.67013c-10.31983,0 -19.96768,4.72205 -28.92577,14.16615c-8.96984,9.45608 -13.4519,19.34417 -13.4519,29.67027c0,8.5921 4.1818,12.88214 12.52798,12.88214l42.35385,0c15.97239,-0.23987 23.95188,-6.40807 23.95188,-18.54017z"/>

  <path fill="#0d0f0f" id="svg_14"  d="m495.80004,485.63245c-10.30801,24.60025 -30.78002,36.87637 -61.44001,36.87637c-5.622,0 -11.71204,0.69 -18.26405,2.10002c-9.83394,2.11803 -14.74798,5.04006 -14.74798,8.7901c0,1.17002 0.81604,2.50801 2.46001,4.04404c1.63203,1.51801 3.04804,2.28601 4.21804,2.28601c-5.86201,0 -1.88405,0.17411 11.92199,0.51c13.81799,0.36002 22.48203,0.534 25.998,0.534c-20.36398,11.93412 -54.42,17.43618 -102.174,16.50017c-15.68402,-0.22209 -29.14202,-7.12806 -40.37403,-20.70621c-11.01001,-12.87611 -16.50598,-27.27026 -16.50598,-43.18242c0,-16.86016 5.67599,-31.18832 17.034,-43.02042c11.34,-11.80812 25.452,-17.71816 42.30601,-17.71816c3.738,0 8.71802,0.82201 14.91599,2.44802c6.20397,1.63801 10.36203,2.46002 12.46199,2.46002c8.66397,0 19.43402,-3.58203 32.31003,-10.7101c12.87598,-7.13407 18.95998,-10.71013 18.25801,-10.71013c-2.34601,24.58227 -10.53601,41.09442 -24.58205,49.50049c-10.06798,5.86805 -15.09598,11.60411 -15.09598,17.20218c0,3.51601 2.1,6.33005 6.312,8.43607c3.276,1.62604 6.90597,2.44802 10.88998,2.44802c6.084,0 12.04803,-3.73804 17.90401,-11.23209c5.84403,-7.4821 8.418,-14.27415 7.71603,-20.36421c-0.69603,-7.03209 -0.22209,-15.45614 1.40994,-25.27824c0.46206,-2.82004 2.16605,-6.27006 5.08805,-10.3621c2.92797,-4.10405 5.56799,-6.62406 7.90199,-7.57208c0,2.124 -0.76202,5.63404 -2.28002,10.53611c-1.52397,4.92003 -2.28001,8.56208 -2.28001,10.88409c0,5.16006 1.404,9.1381 4.21804,11.94013c4.20596,-1.62601 7.94396,-6.90007 11.232,-15.80414c2.808,-6.7801 4.44,-13.34415 4.92001,-19.64423c-9.84001,-0.46801 -19.26604,-4.92002 -28.266,-13.36213c-9.00601,-8.42408 -13.51199,-17.55015 -13.51199,-27.37825c0,-1.62604 0.22209,-3.28204 0.70196,-4.91405c1.39199,2.118 3.498,5.39403 6.31804,9.84008c3.97196,5.85006 7.02,8.77809 9.12597,8.77809c2.808,0 4.212,-2.92803 4.212,-8.77809c0,-7.49405 -1.99197,-14.28012 -5.97,-20.37019c-4.45801,-7.26609 -10.19399,-10.88412 -17.20198,-10.88412c-3.28801,0 -8.19604,1.75202 -14.74801,5.26806c-6.55804,3.50403 -12.52801,5.26806 -17.89801,5.26806c-1.63796,0 -8.90401,-2.11803 -21.77398,-6.32407c22.69794,-3.75005 34.05599,-7.14008 34.05599,-10.19409c0,-7.95011 -15.56401,-13.33814 -46.69804,-16.12818c-3.04797,-0.23384 -8.65793,-0.70201 -16.85398,-1.41002c0.93,-1.16401 7.60798,-2.44202 20.01602,-3.86401c10.52997,-1.15203 17.89797,-1.75802 22.10997,-1.75802c55.70998,0 91.05003,27.03625 106.03801,81.12681c2.58602,-2.14802 3.87005,-5.70006 3.87005,-10.68014c0,-6.40804 -1.872,-14.47212 -5.62201,-24.19823c-1.41004,-3.81003 -3.64205,-9.50409 -6.67804,-17.09415c19.188,24.45025 28.80002,47.62847 28.80002,69.49869c0,11.53211 -2.70601,22.0022 -8.08801,31.39229c-3.49799,6.35406 -10.06801,14.46014 -19.65598,24.35423c-9.60004,9.87011 -16.146,17.51419 -19.66204,22.92624c12.87604,-3.51605 21.30601,-6.21004 25.28405,-8.08206c8.88597,-3.98405 16.96798,-9.96012 24.22198,-17.9102c0,3.06002 -1.29,7.63207 -3.858,13.68614zm-153.08404,-137.97736c0,4.20604 -2.34597,6.91208 -7.02,8.08806l-9.12594,1.39204c-3.28204,1.63201 -8.08205,8.08806 -14.38804,19.31417c-0.71401,-3.50403 -1.758,-8.41808 -3.16801,-14.74212c-2.106,0.2221 -5.60999,2.112 -10.52997,5.61603c-2.10596,1.63802 -5.50204,4.10405 -10.19401,7.37408c1.41,-8.41808 6.10201,-16.95617 14.05198,-25.62624c8.424,-9.58809 16.62001,-14.37617 24.57601,-14.37617c10.53001,-0.01342 15.79798,4.31407 15.79798,12.96015zm61.09201,32.31032c0,3.97203 -2.16599,7.32006 -6.49799,10.00809c-4.33201,2.68205 -8.60403,4.03806 -12.80999,4.03806c-5.62798,0 -10.66198,-3.14402 -15.10201,-9.48611c-5.38798,-7.71007 -10.88401,-12.75013 -16.50001,-15.09616c1.16403,-1.17001 2.57403,-1.75802 4.22404,-1.75802c2.09399,0 5.66398,1.62604 10.69795,4.90808c5.02203,3.29402 8.24999,4.92002 9.66003,4.92002c1.17003,0 3.09598,-1.626 5.78398,-4.92002c2.68803,-3.28204 5.67602,-4.90808 8.95802,-4.90808c7.72801,0 11.58598,4.10405 11.58598,12.29414z"/>
 </g>
</svg>